<svg width="41" height="41" viewBox="0 0 41 41" fill="none" xmlns="http://www.w3.org/2000/svg">
<path opacity="0.15" d="M9.0625 37.532C9.0625 37.9987 10.4817 38.4463 13.0078 38.7763C15.534 39.1062 18.9602 39.2916 22.5327 39.2916C26.1052 39.2916 29.5314 39.1062 32.0576 38.7763C34.5837 38.4463 36.0029 37.9987 36.0029 37.532C36.0029 37.0654 34.5837 36.6178 32.0576 36.2878C29.5314 35.9578 26.1052 35.7725 22.5327 35.7725C18.9602 35.7725 15.534 35.9578 13.0078 36.2878C10.4817 36.6178 9.0625 37.0654 9.0625 37.532Z" fill="black"/>
<path d="M38.4374 8.64417C38.5431 6.67065 37.9369 4.72476 36.7291 3.16042C36.5871 2.96207 36.4044 2.7964 36.1931 2.67457C35.9818 2.55274 35.7469 2.47756 35.5041 2.45409C35.2614 2.43063 35.0164 2.45941 34.7857 2.53852C34.555 2.61762 34.3438 2.74522 34.1666 2.91271C33.8535 3.23205 33.6782 3.66138 33.6782 4.10854C33.6782 4.5557 33.8535 4.98504 34.1666 5.30438C34.6017 5.74379 34.9451 6.26535 35.1768 6.83872C35.4085 7.41208 35.5239 8.0258 35.5161 8.64417C35.5161 11.3946 34.1409 14.3158 28.9561 15.4775C28.5077 15.4003 28.053 15.366 27.598 15.375L17.5018 15.8704C16.9319 15.8984 16.3657 15.7659 15.8674 15.488C15.3691 15.2102 14.9588 14.7982 14.683 14.2988L13.2566 10.9846C12.8899 10.429 12.3985 9.96689 11.8216 9.635C11.6485 9.07527 11.4075 8.53885 11.1041 8.03771C10.7086 7.31745 10.116 6.72485 9.39573 6.32938C9.31006 6.28576 9.21503 6.26376 9.11892 6.2653C9.0228 6.26683 8.92852 6.29185 8.84429 6.33818C8.76006 6.3845 8.68844 6.45073 8.63568 6.53108C8.58291 6.61143 8.5506 6.70347 8.54156 6.79917L8.3451 8.97729C7.69076 9.01642 7.05286 9.19797 6.47599 9.50928C5.89912 9.82058 5.3972 10.2541 5.00531 10.7796L4.33052 11.796L2.45989 13.6667C2.30904 13.8181 2.20474 14.0097 2.15933 14.2186C2.11392 14.4275 2.12929 14.645 2.20364 14.8454L2.83573 17.5958C2.98288 17.9872 3.21812 18.3395 3.52324 18.6253C3.82837 18.9112 4.19519 19.123 4.59531 19.2444L7.87531 20.2267C8.26874 20.3466 8.62395 20.5674 8.90565 20.8671C9.18736 21.1667 9.38576 21.5349 9.48114 21.935L10.1816 24.8477C10.7004 26.4109 11.7024 27.7688 13.043 28.7256C13.1796 29.7307 13.2509 30.7436 13.2566 31.7579C13.0567 33.2479 12.7715 34.7252 12.4024 36.1825C12.368 36.3535 12.3723 36.5301 12.4149 36.6993C12.4576 36.8684 12.5375 37.0259 12.6489 37.1602C12.7602 37.2945 12.9002 37.4022 13.0585 37.4754C13.2169 37.5486 13.3896 37.5855 13.5641 37.5833H14.3243C14.5339 37.5842 14.7399 37.5282 14.9204 37.4215C15.1009 37.3147 15.2491 37.1611 15.3493 36.9769C16.1522 35.5163 18.1339 31.8006 18.5011 30.1435C19.1071 30.085 19.7037 29.9531 20.2778 29.7506L23.0624 28.6915C23.8516 28.4089 24.7102 28.385 25.5139 28.6231C26.2112 28.8267 26.9261 28.964 27.6493 29.0331C28.1025 30.3877 29.0071 31.5456 30.2118 32.3131L29.7761 36.285C29.7579 36.4505 29.7751 36.6181 29.8268 36.7764C29.8785 36.9347 29.9633 37.0802 30.0757 37.2031C30.1881 37.326 30.3254 37.4235 30.4785 37.4891C30.6316 37.5546 30.7969 37.5868 30.9634 37.5833H32.2532C32.5101 37.5854 32.7605 37.5029 32.9658 37.3485C33.1711 37.1941 33.3199 36.9765 33.3893 36.7292L34.9268 30.5877C34.5816 29.65 34.3828 28.6647 34.3374 27.6665L34.6961 23.0369C34.7736 22.0944 34.6625 21.1459 34.3692 20.2469C34.0758 19.3478 33.6062 18.5163 32.9878 17.8008L32.7572 17.5617C35.8749 16.1352 38.352 13.3848 38.4374 8.64417Z" fill="#F79329"/>
<path d="M3.09198 16.7673C3.00974 16.5514 2.99179 16.3163 3.0403 16.0905C3.0888 15.8646 3.20169 15.6577 3.36531 15.4946L5.44093 13.5215L6.16698 12.4281C6.58973 11.8633 7.13038 11.3973 7.75137 11.0624C8.37236 10.7276 9.05881 10.532 9.76302 10.4892L9.97656 8.14021C9.9867 8.04416 10.019 7.95177 10.0709 7.87034C10.1229 7.78891 10.193 7.72066 10.2758 7.67097C10.3587 7.62128 10.4519 7.5915 10.5482 7.58399C10.6445 7.57649 10.7412 7.59145 10.8307 7.62771C10.4671 7.10208 9.98789 6.66671 9.42989 6.355C9.34423 6.31139 9.2492 6.28939 9.15308 6.29092C9.05697 6.29246 8.96269 6.31748 8.87846 6.3638C8.79423 6.41013 8.72261 6.47635 8.66984 6.5567C8.61708 6.63705 8.58477 6.72909 8.57573 6.82479L8.37927 9.00292C7.72493 9.04204 7.08703 9.2236 6.51016 9.5349C5.93329 9.84621 5.43136 10.2797 5.03948 10.8052L4.36468 11.8217L2.45989 13.6667C2.30904 13.8181 2.20474 14.0097 2.15933 14.2186C2.11392 14.4275 2.12929 14.645 2.20364 14.8454L2.83573 17.5958C2.97847 17.9826 3.20953 18.3306 3.51052 18.6123L3.09198 16.7673ZM16.5195 16.1438C16.8159 16.6843 17.258 17.131 17.7955 17.4329C18.333 17.7349 18.9444 17.8801 19.5603 17.8521L30.4253 17.3225C30.9157 17.3242 31.4048 17.3728 31.8859 17.4677C32.6664 17.2946 33.4297 17.0516 34.1666 16.7417C36.618 15.1956 38.3605 12.6246 38.4374 8.64417C38.5446 6.67046 37.9382 4.72404 36.7291 3.16042C36.5871 2.96207 36.4044 2.7964 36.1931 2.67457C35.9818 2.55274 35.7469 2.47756 35.5041 2.45409C35.2614 2.43063 35.0164 2.45941 34.7857 2.53852C34.555 2.61762 34.3438 2.74522 34.1666 2.91271C33.8535 3.23205 33.6782 3.66138 33.6782 4.10854C33.6782 4.5557 33.8535 4.98504 34.1666 5.30438C34.6017 5.74378 34.9451 6.26535 35.1768 6.83872C35.4085 7.41208 35.5239 8.0258 35.5161 8.64417C35.5161 11.3946 34.1409 14.3158 28.9561 15.4775C28.5077 15.4003 28.053 15.366 27.598 15.375L17.5018 15.8704C17.0866 15.879 16.674 15.8035 16.2889 15.6483L16.5195 16.1438Z" fill="#FFC191"/>
<path d="M38.4374 8.64417C38.5431 6.67065 37.9369 4.72476 36.7291 3.16042C36.5871 2.96207 36.4044 2.7964 36.1931 2.67457C35.9818 2.55274 35.7469 2.47756 35.5041 2.45409C35.2614 2.43063 35.0164 2.45941 34.7857 2.53852C34.5549 2.61762 34.3439 2.74522 34.1666 2.91271C33.8535 3.23205 33.6782 3.66138 33.6782 4.10854C33.6782 4.5557 33.8535 4.98504 34.1666 5.30438C34.6017 5.74379 34.9451 6.26535 35.1768 6.83872C35.4085 7.41208 35.5239 8.0258 35.5161 8.64417C35.5161 11.3946 34.1409 14.3158 28.9561 15.4775C28.5077 15.4003 28.053 15.366 27.598 15.375L17.5018 15.8704C16.9319 15.8984 16.3657 15.7659 15.8674 15.488C15.3691 15.2102 14.9588 14.7982 14.683 14.2988L13.2566 10.9846C12.8899 10.429 12.3985 9.96689 11.8216 9.635C11.6485 9.07527 11.4075 8.53885 11.1041 8.03771C10.7086 7.31745 10.116 6.72485 9.39573 6.32938C9.31006 6.28576 9.21503 6.26376 9.11892 6.2653C9.0228 6.26683 8.92852 6.29185 8.84429 6.33818C8.76006 6.3845 8.68844 6.45073 8.63568 6.53108C8.58291 6.61143 8.5506 6.70347 8.54156 6.79917L8.3451 8.97729C7.69076 9.01641 7.05286 9.19797 6.47599 9.50928C5.89912 9.82058 5.3972 10.2541 5.00531 10.7796L4.33052 11.796L2.45989 13.6667C2.30904 13.8181 2.20474 14.0097 2.15933 14.2186C2.11392 14.4275 2.12929 14.645 2.20364 14.8454L2.83573 17.5958C2.98288 17.9872 3.21812 18.3395 3.52324 18.6253C3.82837 18.9112 4.19519 19.123 4.59531 19.2444L7.87531 20.2267C8.26874 20.3466 8.62395 20.5674 8.90565 20.8671C9.18736 21.1667 9.38576 21.5349 9.48114 21.935L10.1816 24.8477C10.7004 26.4109 11.7024 27.7688 13.043 28.7256C13.1796 29.7307 13.2509 30.7436 13.2566 31.7579C13.0567 33.2479 12.7715 34.7252 12.4024 36.1825C12.368 36.3535 12.3723 36.5301 12.4149 36.6993C12.4576 36.8684 12.5375 37.0259 12.6489 37.1602C12.7602 37.2945 12.9002 37.4022 13.0585 37.4754C13.2169 37.5486 13.3896 37.5855 13.5641 37.5833H14.3243C14.5339 37.5842 14.7399 37.5282 14.9204 37.4215C15.1009 37.3147 15.2491 37.1611 15.3493 36.9769C16.1522 35.5163 18.1339 31.8006 18.5011 30.1435C19.1071 30.085 19.7037 29.9531 20.2778 29.7506L23.0624 28.6915C23.8516 28.4089 24.7102 28.385 25.5139 28.6231C26.2112 28.8267 26.9261 28.964 27.6493 29.0331C28.1025 30.3877 29.0071 31.5456 30.2118 32.3131L29.7761 36.285C29.7579 36.4505 29.7751 36.6181 29.8268 36.7764C29.8785 36.9347 29.9633 37.0802 30.0757 37.2031C30.1881 37.326 30.3254 37.4235 30.4785 37.4891C30.6316 37.5546 30.7969 37.5868 30.9634 37.5833H32.2532C32.5101 37.5854 32.7605 37.5029 32.9658 37.3485C33.1711 37.1941 33.3199 36.9765 33.3893 36.7292L34.9268 30.5877C34.5816 29.65 34.3828 28.6647 34.3374 27.6665L34.6961 23.0369C34.7736 22.0944 34.6625 21.1459 34.3692 20.2469C34.0758 19.3478 33.6062 18.5163 32.9878 17.8008L32.7572 17.5617C35.8749 16.1352 38.352 13.3848 38.4374 8.64417Z" stroke="black" stroke-width="0.854167" stroke-linecap="round" stroke-linejoin="round"/>
<path d="M18.501 30.1008C18.8683 28.0594 19.116 25.83 19.116 25.83M30.2458 32.3131C30.2458 32.3131 26.6583 30.4083 27.3331 25.2833" stroke="black" stroke-width="0.854167" stroke-linecap="round" stroke-linejoin="round"/>
<path d="M7.82448 12.9492C7.82448 13.1351 7.76937 13.3167 7.66613 13.4712C7.56289 13.6257 7.41615 13.7462 7.24446 13.8173C7.07277 13.8884 6.88385 13.907 6.70159 13.8708C6.51933 13.8345 6.35191 13.745 6.22051 13.6136C6.08911 13.4822 5.99962 13.3148 5.96337 13.1325C5.92711 12.9503 5.94572 12.7613 6.01683 12.5897C6.08795 12.418 6.20838 12.2712 6.36289 12.168C6.51741 12.0647 6.69906 12.0096 6.8849 12.0096C7.13409 12.0096 7.37308 12.1086 7.54928 12.2848C7.72549 12.461 7.82448 12.7 7.82448 12.9492Z" fill="black"/>
<path d="M8.77148 15.2554C8.77148 15.5117 9.19857 15.7252 9.71107 15.7252C10.2236 15.7252 10.6507 15.5117 10.6507 15.2554C10.6507 14.9992 10.2321 14.7856 9.71107 14.7856C9.19003 14.7856 8.77148 14.9906 8.77148 15.2554Z" fill="#F75D29"/>
</svg>
